<svg width="130" height="124" viewBox="0 0 130 124" fill="none" xmlns="http://www.w3.org/2000/svg">
<g clip-path="url(#clip0_413_275)">
<path d="M9.81888 78.5082C22.941 91.7474 39.2401 92.943 50.2077 89.7877C56.9286 87.8533 62.6013 84.2086 66.8745 79.1161C68.9884 76.6012 70.9278 73.7157 72.0807 70.3589C73.1454 67.2616 73.4106 63.4085 71.5363 59.178C67.8023 50.75 57.7752 46.7728 51.9056 47.7554C48.9845 48.246 46.6115 50.0319 45.7876 52.9293C44.9637 55.8266 45.9599 59.6206 48.4331 63.2003C53.4206 70.4149 61.5099 74.76 68.2238 76.6458C75.877 78.8006 82.7721 78.1935 88.558 75.9295C95.3531 73.2698 100.692 68.4836 105.53 63.3967C110.625 58.0385 115.081 52.034 119.456 45.953C120.538 44.4459 121.61 42.936 122.686 41.4225C122.993 40.9944 123.607 40.7054 124.285 40.8968C124.832 41.0542 125.22 41.5452 124.938 41.9519C120.3 48.6166 115.616 55.2534 110.333 61.2888C105.284 67.0508 99.7141 72.5064 92.7555 76.0268C86.6007 79.1382 79.2411 80.631 70.7901 79.0965C63.5721 77.7895 54.8928 74.0644 48.483 66.9137C45.5946 63.6868 43.3349 59.8515 43.033 56.2681C42.6785 52.1503 44.6885 49.2142 47.4033 47.5725C52.5477 44.4709 61.8553 45.493 69.1755 52.0044C72.9437 55.3588 75.048 60.0478 75.3932 64.0486C75.7634 68.3234 74.3233 71.7045 72.6498 74.6641C68.9972 81.1021 63.5821 86.0464 56.9338 89.1353C50.7068 92.0253 43.3664 93.5809 35.216 92.7163C28.1793 91.9676 20.2982 89.4549 13.0308 84.0016C11.2678 82.6792 9.58537 81.1951 7.99393 79.5856C7.05825 78.6418 9.05182 77.7239 9.84392 78.5204L9.81888 78.5082Z" fill="#545454"/>
<path d="M5.36222 75.1541L10.0381 83.2568L12.2895 87.1563L13.5017 89.2579C13.7561 89.6951 14.0548 90.4691 14.477 90.7704C14.9581 91.1225 14.6387 91.6418 14.4821 91.7905C14.1462 92.1194 13.6088 92.2266 13.0339 92.1275C12.459 92.0285 12.1016 91.6703 11.7546 91.0866C11.3119 90.3366 10.8869 89.5822 10.4539 88.835L8.02942 84.6319L3.00906 75.932C2.36996 74.8191 4.73758 74.074 5.36222 75.1541Z" fill="#545454"/>
<path d="M6.72303 74.8486C11.0504 76.4601 15.3413 77.8417 19.6505 79.3097C20.2122 79.5 20.5532 79.9296 20.3051 80.3749C20.0571 80.8202 19.3412 81.0839 18.7026 80.9041C14.2351 79.6319 9.6853 77.9879 5.17201 76.3119C4.46006 76.0484 4.70892 75.3178 4.93848 75.105C5.33924 74.7192 6.00702 74.5888 6.72462 74.8586L6.72303 74.8486Z" fill="#545454"/>
</g>
<defs>
<clipPath id="clip0_413_275">
<rect width="117.949" height="61.2009" fill="white" transform="matrix(0.75171 -0.659493 -0.659493 -0.75171 40.3616 123.792)"/>
</clipPath>
</defs>
</svg>
